<svg width="56" height="56" viewBox="0 0 56 56" fill="none" xmlns="http://www.w3.org/2000/svg">
<circle cx="28" cy="28" r="28" fill="#080705"/>
<mask id="mask0_47_3877" style="mask-type:alpha" maskUnits="userSpaceOnUse" x="21" y="9" width="14" height="38">
<path d="M35 9.3335H21V10.2666C21.9871 10.2662 22.9036 10.8137 23.3015 11.6889L32.5 31.9257V12.6002C32.5 11.3115 33.6193 10.2668 35 10.2668V9.3335Z" fill="#107C49"/>
<path d="M35 45.7337C34.0129 45.7341 33.0964 45.1867 32.6985 44.3114L23.5 24.0746V43.4002C23.5 44.6888 22.3807 45.7335 21 45.7335V46.6668H35V45.7337Z" fill="#107C49"/>
</mask>
<g mask="url(#mask0_47_3877)">
<path d="M35 9.3335H21V10.2666C21.9871 10.2662 22.9036 10.8137 23.3015 11.6889L32.5 31.9257V12.6002C32.5 11.3115 33.6193 10.2668 35 10.2668V9.3335Z" fill="white"/>
<path d="M35 45.7337C34.0129 45.7341 33.0964 45.1867 32.6985 44.3114L23.5 24.0746V43.4002C23.5 44.6888 22.3807 45.7335 21 45.7335V46.6668H35V45.7337Z" fill="white"/>
<path d="M35 9.3335H21V10.2666C21.9871 10.2662 22.9036 10.8137 23.3015 11.6889L32.5 31.9257V12.6002C32.5 11.3115 33.6193 10.2668 35 10.2668V9.3335Z" stroke="white"/>
<path d="M35 45.7337C34.0129 45.7341 33.0964 45.1867 32.6985 44.3114L23.5 24.0746V43.4002C23.5 44.6888 22.3807 45.7335 21 45.7335V46.6668H35V45.7337Z" stroke="white"/>
<path d="M54.4674 28.6976L54.4674 26.2892L52.6088 26.2731L50.7502 26.257L50.7502 27.319L50.7502 28.3758L51.4762 28.3758L52.2022 28.3758L52.2022 28.6976L52.2022 29.0194L51.0987 29.0194L49.9951 29.0194L49.9951 27.303L49.9951 25.5865L52.6088 25.5865L55.2224 25.5865L55.2224 25.2378L55.2224 24.8892L52.2313 24.8892L49.2401 24.8892L49.2401 27.3298L49.2401 29.7704L51.1103 29.7597L52.9863 29.7436L52.9863 28.6976L52.9863 27.6516L52.2429 27.6355L51.5052 27.6194L51.5052 27.303L51.5052 26.9811L52.6088 26.9811L53.7123 26.9811L53.7123 28.6976L53.7123 30.4141L48.8916 30.4141L44.0709 30.4141L44.0709 28.6976L44.0709 26.9811L45.1396 26.9811L46.2083 26.9811L46.2315 27.303L46.2489 27.6248L45.5055 27.6248L44.7679 27.6248L44.7679 28.6976L44.7679 29.7704L46.6381 29.7597L48.5141 29.7436L48.5315 27.319L48.5431 24.8892L42.9093 24.8892L37.2754 24.8892L37.2871 27.319L37.3045 29.7436L39.1747 29.7597L41.0507 29.7704L41.0507 28.6976L41.0507 27.6248L40.3247 27.6248L39.5987 27.6248L39.5987 27.303L39.5987 26.9811L40.7022 26.9811L41.8057 26.9811L41.8057 28.6976L41.8057 30.4141L36.9676 30.4033L32.1353 30.3872L32.1179 28.6869L32.1062 26.9811L33.2098 26.9811L34.3133 26.9811L34.3133 27.303L34.3133 27.6248L33.5873 27.6248L32.8613 27.6248L32.8613 28.6976L32.8613 29.7704L34.7199 29.7704L36.5785 29.7704L36.5785 27.3298L36.5785 24.8892L30.9737 24.8892L25.3689 24.8892L25.3805 27.319L25.3979 29.7436L27.2565 29.7436L29.1151 29.7436L29.1325 28.6869L29.1441 27.6248L28.3891 27.6248L27.634 27.6248L27.634 27.303L27.634 26.9811L28.7376 26.9811L29.8411 26.9811L29.8411 28.6976L29.8411 30.4141L25.0204 30.4141L20.1997 30.4141L20.1997 28.6976L20.1997 26.9811L21.3032 26.9811L22.4068 26.9811L22.4068 27.303L22.4068 27.6194L21.6633 27.6355L20.9257 27.6516L20.9257 28.6976L20.9257 29.7436L22.7959 29.7597L24.6719 29.7704L24.6719 27.3298L24.6719 24.8892L22.0583 24.8892L19.4446 24.8892L19.4446 25.2378L19.4446 25.5865L21.6807 25.5865L23.9169 25.5865L23.9169 27.303L23.9169 29.0194L22.8133 29.0194L21.7098 29.0194L21.7098 28.6976L21.7098 28.3811L22.4358 28.365L23.1676 28.3489L23.1792 27.3137L23.1908 26.2838L21.3148 26.2838L19.4446 26.2838L19.4446 28.6976L19.4446 31.1114L25.0494 31.1114L30.6542 31.1114L30.6542 28.7083C30.6542 27.3834 30.6426 26.2892 30.631 26.2784C30.6194 26.2677 29.7656 26.2623 28.7434 26.2731L26.879 26.2892L26.879 27.3298L26.879 28.3757L27.634 28.3757L28.3891 28.3757L28.3891 28.6976L28.3891 29.0194L27.2855 29.0194L26.182 29.0194L26.182 27.303L26.182 25.5865L31.0027 25.5865L35.8234 25.5865L35.8234 27.303L35.8234 29.0194L34.7199 29.0194L33.6164 29.0194L33.6164 28.6976L33.6164 28.3811L34.354 28.365L35.0974 28.3489L35.0974 27.319C35.0974 26.7505 35.08 26.2838 35.0509 26.2838C35.0277 26.2838 34.1855 26.2838 33.1807 26.2838L31.3512 26.2838L31.3512 28.6976L31.3512 31.1114L36.956 31.1114L42.5608 31.1114L42.5608 28.6976L42.5608 26.2838L40.7312 26.2838C39.7265 26.2838 38.8843 26.2838 38.8552 26.2838C38.832 26.2838 38.8146 26.7505 38.8146 27.319L38.8146 28.3489L39.5522 28.365L40.2956 28.3811L40.2956 28.6976L40.2956 29.0194L39.1921 29.0194L38.0886 29.0194L38.0886 27.303L38.0886 25.5865L42.9093 25.5865L47.73 25.5865L47.73 27.303L47.73 29.0194L46.6265 29.0194L45.5229 29.0194L45.5229 28.6976L45.5229 28.3758L46.278 28.3758L47.033 28.3758L47.033 27.3298L47.033 26.2838L45.1454 26.2838L43.2578 26.2838L43.2578 28.6976L43.2578 31.1114L48.8626 31.1114L54.4674 31.1114L54.4674 28.6976Z" fill="#080705"/>
<path d="M42.5636 43.9232L42.5636 42.1169L41.2707 42.1048L39.9778 42.0928L39.9778 42.8893L39.9778 43.6818L40.4828 43.6818L40.9879 43.6818L40.9879 43.9232L40.9879 44.1646L40.2202 44.1646L39.4525 44.1646L39.4525 42.8772L39.4525 41.5899L41.2707 41.5899L43.0889 41.5899L43.0889 41.3284L43.0889 41.0669L41.0081 41.0669L38.9273 41.0669L38.9273 42.8974L38.9273 44.7278L40.2283 44.7198L41.5333 44.7077L41.5333 43.9232L41.5333 43.1387L41.0161 43.1267L40.503 43.1146L40.503 42.8772L40.503 42.6359L41.2707 42.6359L42.0384 42.6359L42.0384 43.9232L42.0384 45.2106L38.6848 45.2106L35.3313 45.2106L35.3313 43.9232L35.3313 42.6359L36.0747 42.6359L36.8182 42.6359L36.8343 42.8772L36.8464 43.1186L36.3293 43.1186L35.8161 43.1186L35.8161 43.9232L35.8161 44.7278L37.1171 44.7198L38.4222 44.7077L38.4343 42.8893L38.4424 41.0669L34.5232 41.0669L30.604 41.0669L30.6121 42.8893L30.6242 44.7077L31.9252 44.7198L33.2303 44.7278L33.2303 43.9232L33.2303 43.1186L32.7252 43.1186L32.2202 43.1186L32.2202 42.8772L32.2202 42.6359L32.9879 42.6359L33.7555 42.6359L33.7555 43.9232L33.7555 45.2106L30.3899 45.2025L27.0283 45.1905L27.0161 43.9152L27.0081 42.6359L27.7757 42.6359L28.5434 42.6359L28.5434 42.8772L28.5434 43.1186L28.0384 43.1186L27.5333 43.1186L27.5333 43.9232L27.5333 44.7278L28.8262 44.7278L30.1192 44.7278L30.1192 42.8974L30.1192 41.0669L26.2202 41.0669L22.3212 41.0669L22.3293 42.8893L22.3414 44.7077L23.6343 44.7077L24.9273 44.7077L24.9394 43.9152L24.9475 43.1186L24.4222 43.1186L23.8969 43.1186L23.8969 42.8772L23.8969 42.6359L24.6646 42.6359L25.4323 42.6359L25.4323 43.9232L25.4323 45.2106L22.0788 45.2106L18.7252 45.2106L18.7252 43.9232L18.7252 42.6359L19.4929 42.6359L20.2606 42.6359L20.2606 42.8772L20.2606 43.1146L19.7434 43.1267L19.2303 43.1387L19.2303 43.9232L19.2303 44.7077L20.5313 44.7198L21.8363 44.7278L21.8363 42.8974L21.8363 41.0669L20.0182 41.0669L18.2 41.0669L18.2 41.3284L18.2 41.5899L19.7555 41.5899L21.3111 41.5899L21.3111 42.8772L21.3111 44.1646L20.5434 44.1646L19.7757 44.1646L19.7757 43.9232L19.7757 43.6859L20.2808 43.6738L20.7899 43.6617L20.798 42.8853L20.806 42.1129L19.501 42.1129L18.2 42.1129L18.2 43.9232L18.2 45.7336L22.099 45.7336L25.998 45.7336L25.998 43.9313C25.998 42.9376 25.9899 42.1169 25.9818 42.1088C25.9737 42.1008 25.3798 42.0968 24.6687 42.1048L23.3717 42.1169L23.3717 42.8974L23.3717 43.6818L23.8969 43.6818L24.4222 43.6818L24.4222 43.9232L24.4222 44.1646L23.6545 44.1646L22.8868 44.1646L22.8868 42.8772L22.8868 41.5899L26.2404 41.5899L29.5939 41.5899L29.5939 42.8772L29.5939 44.1646L28.8262 44.1646L28.0586 44.1646L28.0586 43.9232L28.0586 43.6859L28.5717 43.6738L29.0889 43.6617L29.0889 42.8893C29.0889 42.4629 29.0767 42.1129 29.0565 42.1129C29.0404 42.1129 28.4545 42.1129 27.7555 42.1129L26.4828 42.1129L26.4828 43.9232L26.4828 45.7336L30.3818 45.7336L34.2808 45.7336L34.2808 43.9232L34.2808 42.1129L33.0081 42.1129C32.3091 42.1129 31.7232 42.1129 31.703 42.1129C31.6868 42.1129 31.6747 42.4629 31.6747 42.8893L31.6747 43.6617L32.1879 43.6738L32.705 43.6859L32.705 43.9232L32.705 44.1646L31.9374 44.1646L31.1697 44.1646L31.1697 42.8772L31.1697 41.5899L34.5232 41.5899L37.8767 41.5899L37.8767 42.8772L37.8767 44.1646L37.1091 44.1646L36.3414 44.1646L36.3414 43.9232L36.3414 43.6818L36.8666 43.6818L37.3919 43.6818L37.3919 42.8974L37.3919 42.1129L36.0788 42.1129L34.7656 42.1129L34.7656 43.9232L34.7656 45.7336L38.6646 45.7336L42.5636 45.7336L42.5636 43.9232Z" fill="#080705"/>
<path d="M46.8863 13.1229L46.8863 11.3166L45.5125 11.3045L44.1388 11.2925L44.1388 12.089L44.1388 12.8815L44.6754 12.8815L45.212 12.8815L45.212 13.1229L45.212 13.3643L44.3964 13.3643L43.5807 13.3643L43.5807 12.0769L43.5807 10.7896L45.5125 10.7896L47.4443 10.7896L47.4443 10.5281L47.4443 10.2666L45.2335 10.2666L43.0226 10.2666L43.0226 12.0971L43.0226 13.9275L44.4049 13.9195L45.7916 13.9074L45.7916 13.1229L45.7916 12.3384L45.2421 12.3264L44.6969 12.3143L44.6969 12.0769L44.6969 11.8356L45.5125 11.8356L46.3282 11.8356L46.3282 13.1229L46.3282 14.4103L42.765 14.4103L39.2019 14.4103L39.2019 13.1229L39.2019 11.8356L39.9918 11.8356L40.7817 11.8356L40.7989 12.0769L40.8118 12.3183L40.2623 12.3183L39.7171 12.3183L39.7171 13.1229L39.7171 13.9275L41.0994 13.9195L42.486 13.9074L42.4989 12.089L42.5075 10.2666L38.3433 10.2666L34.1792 10.2666L34.1878 12.089L34.2006 13.9074L35.583 13.9195L36.9696 13.9275L36.9696 13.1229L36.9696 12.3183L36.433 12.3183L35.8964 12.3183L35.8964 12.0769L35.8964 11.8356L36.712 11.8356L37.5277 11.8356L37.5277 13.1229L37.5277 14.4103L33.9517 14.4022L30.3799 14.3902L30.3671 13.1149L30.3585 11.8356L31.1741 11.8356L31.9898 11.8356L31.9898 12.0769L31.9898 12.3183L31.4532 12.3183L30.9166 12.3183L30.9166 13.1229L30.9166 13.9275L32.2903 13.9275L33.664 13.9275L33.664 12.0971L33.664 10.2666L29.5214 10.2666L25.3787 10.2666L25.3873 12.089L25.4001 13.9074L26.7739 13.9074L28.1476 13.9074L28.1605 13.1149L28.1691 12.3183L27.611 12.3183L27.0529 12.3183L27.0529 12.0769L27.0529 11.8356L27.8686 11.8356L28.6842 11.8356L28.6842 13.1229L28.6842 14.4103L25.1211 14.4103L21.558 14.4103L21.558 13.1229L21.558 11.8356L22.3736 11.8356L23.1893 11.8356L23.1893 12.0769L23.1893 12.3143L22.6398 12.3264L22.0946 12.3384L22.0946 13.1229L22.0946 13.9074L23.4769 13.9195L24.8635 13.9275L24.8635 12.0971L24.8635 10.2666L22.9317 10.2666L20.9999 10.2666L20.9999 10.5281L20.9999 10.7896L22.6527 10.7896L24.3054 10.7896L24.3054 12.0769L24.3054 13.3643L23.4898 13.3643L22.6741 13.3643L22.6741 13.1229L22.6741 12.8856L23.2107 12.8735L23.7517 12.8614L23.7602 12.085L23.7688 11.3126L22.3822 11.3126L20.9999 11.3126L20.9999 13.1229L20.9999 14.9333L25.1426 14.9333L29.2852 14.9333L29.2852 13.131C29.2852 12.1373 29.2767 11.3166 29.2681 11.3086C29.2595 11.3005 28.6284 11.2965 27.8729 11.3045L26.4948 11.3166L26.4948 12.0971L26.4948 12.8815L27.0529 12.8815L27.611 12.8815L27.611 13.1229L27.611 13.3643L26.7953 13.3643L25.9797 13.3643L25.9797 12.0769L25.9797 10.7896L29.5428 10.7896L33.106 10.7896L33.106 12.0769L33.106 13.3643L32.2903 13.3643L31.4746 13.3643L31.4746 13.1229L31.4746 12.8856L32.0198 12.8735L32.5693 12.8614L32.5693 12.089C32.5693 11.6626 32.5565 11.3126 32.535 11.3126C32.5178 11.3126 31.8953 11.3126 31.1527 11.3126L29.8004 11.3126L29.8004 13.1229L29.8004 14.9333L33.9431 14.9333L38.0857 14.9333L38.0857 13.1229L38.0857 11.3126L36.7335 11.3126C35.9908 11.3126 35.3683 11.3126 35.3469 11.3126C35.3297 11.3126 35.3168 11.6626 35.3168 12.089L35.3168 12.8614L35.862 12.8735L36.4115 12.8856L36.4115 13.1229L36.4115 13.3643L35.5958 13.3643L34.7802 13.3643L34.7802 12.0769L34.7802 10.7896L38.3433 10.7896L41.9065 10.7896L41.9065 12.0769L41.9065 13.3643L41.0908 13.3643L40.2751 13.3643L40.2751 13.1229L40.2751 12.8815L40.8332 12.8815L41.3913 12.8815L41.3913 12.0971L41.3913 11.3126L39.9961 11.3126L38.6009 11.3126L38.6009 13.1229L38.6009 14.9333L42.7436 14.9333L46.8863 14.9333L46.8863 13.1229Z" fill="#080705"/>
</g>
</svg>
